# xmcd CD database file
#
# Track frame offsets:
#	150
#	967
#	14720
#	24070
#	35865
#	51642
#	77242
#	98317
#	110260
#	129432
#	149380
#	170900
#	183952
#	208165
#	222955
#	237280
#
# Disc length: 3354 seconds
#
# Revision: 1
# Processed by: cddbd v1.5PL3 Copyright (c) Steve Scherf et al.
# Submitted via: CDex 1.40PlusFr
#
DISCID=d90d1810
DTITLE=Les Cowboys Fringants - Motel Capri
DYEAR=2000
DGENRE=Québécois
TTITLE0=Su' mon Big Wheel (c'tait l'fun)
TTITLE1=Le Plombier
TTITLE2=Québécois de Souche
TTITLE3=Awikatchikaën
TTITLE4=Maurice au bistro
TTITLE5=M'a vivre avec toi
TTITLE6=Le Shack à Hector
TTITLE7=Marcel Galarneau
TTITLE8=Mon Pays/Reel des Aristrocrates
TTITLE9=Rue Chapdelaine
TTITLE10=Banlieue
TTITLE11=Voyou
TTITLE12=Léopold
TTITLE13=Le Gars d'la Compagnie
TTITLE14=Le Pouceux
TTITLE15=Un p'tit tour
EXTD=YEAR: 2000
EXTT0=
EXTT1=
EXTT2=
EXTT3=
EXTT4=
EXTT5=
EXTT6=
EXTT7=
EXTT8=
EXTT9=
EXTT10=
EXTT11=
EXTT12=
EXTT13=
EXTT14=
EXTT15=
PLAYORDER=
